<svg xmlns="http://www.w3.org/2000/svg" viewBox="0 0 80 80"><path d="M59.843 51.77c0-.887-.363-1.72-.99-2.343L49.427 40l9.426-9.427c.624-.623.99-1.46.99-2.343s-.363-1.77-.99-2.397l-4.686-4.686c-.624-.624-1.51-.99-2.397-.99-.887 0-1.72.363-2.343.99L40 30.573l-9.427-9.426c-.623-.624-1.46-.99-2.343-.99s-1.77.363-2.397.99l-4.686 4.686c-.624.624-.99 1.51-.99 2.397 0 .887.363 1.72.99 2.343L30.573 40l-9.426 9.427c-.624.623-.99 1.46-.99 2.343s.363 1.77.99 2.397l4.686 4.686c.624.624 1.51.99 2.397.99.887 0 1.72-.363 2.343-.99L40 49.427l9.427 9.426c.623.624 1.46.99 2.343.99s1.77-.363 2.397-.99l4.686-4.686c.624-.624.99-1.51.99-2.397zM80 40c0 22.083-17.917 40-40 40S0 62.083 0 40 17.917 0 40 0s40 17.917 40 40z" fill="#222"/></svg>